<?xml version="1.0" encoding="utf-8"?>
<!-- Generator: Adobe Illustrator 15.0.2, SVG Export Plug-In . SVG Version: 6.00 Build 0)  -->
<!DOCTYPE svg PUBLIC "-//W3C//DTD SVG 1.1//EN" "http://www.w3.org/Graphics/SVG/1.1/DTD/svg11.dtd">
<svg version="1.1" id="Layer_1" xmlns="http://www.w3.org/2000/svg" xmlns:xlink="http://www.w3.org/1999/xlink" x="0px" y="0px"
	 width="250px" height="250px" viewBox="0 0 250 250" enable-background="new 0 0 250 250" xml:space="preserve">
<path fill="#7CBFC1" d="M225.635,125.169c0,55.227-44.771,99.997-100.001,99.997c-55.227,0-99.999-44.771-99.999-99.997
	c0-55.231,44.772-100.003,99.999-100.003C180.864,25.166,225.635,69.938,225.635,125.169z M121.94,170l-13.072-78H89.752l-43.23,78
	h16.149l10.711-20h29.499l3.021,20H121.94z M101.616,138H79.919l11.646-22.082c0.513-0.99,1.063-2.181,1.648-3.353
	s1.122-2.362,1.617-3.461s0.934-2.124,1.317-3.021c0.386-0.897,0.654-1.581,0.8-2.02c0,0.366,0.038,0.919,0.11,1.669
	c0.073,0.75,0.164,1.552,0.275,2.413c0.109,0.861,0.219,1.702,0.329,2.526c0.109,0.822,0.202,1.73,0.274,2.28L101.616,138z
	 M143.725,92l-15.051,78h31.75c3.845,0,7.617-0.658,11.315-1.498c3.699-0.844,7.184-2.217,10.461-3.883
	c3.278-1.666,6.299-3.794,9.063-6.265c2.766-2.473,5.146-5.376,7.142-8.654c1.995-3.277,3.553-6.973,4.668-11.056
	c1.117-4.084,1.679-8.567,1.679-13.438c0-5.494-0.854-10.304-2.558-14.423c-1.701-4.12-4.161-7.563-7.384-10.329
	c-3.223-2.765-7.172-4.909-11.841-6.301C178.3,92.762,172.983,92,167.015,92H143.725z M157.458,104h9.666
	c3.516,0,6.666,0.766,9.449,1.646c2.783,0.878,5.133,2.36,7.055,4.118c1.924,1.758,3.4,4.047,4.426,6.702
	c1.025,2.654,1.538,5.816,1.538,9.406c0,5.054-0.751,9.533-2.253,13.396c-1.501,3.863-3.57,7.114-6.207,9.732
	c-2.637,2.619-5.768,4.608-9.393,5.963c-3.625,1.355-7.563,2.036-11.811,2.036h-12.634L157.458,104z M120.728,66.52
	c-0.727-1.617-1.722-2.939-2.979-3.967c-1.257-1.025-2.753-1.771-4.468-2.24c-1.721-0.47-3.602-0.677-5.646-0.623l-9.527,0.241
	l0.665,26.328l10.651-0.275c1.806-0.043,3.484-0.373,5.035-0.983c1.55-0.616,2.88-1.495,3.997-2.648
	c1.117-1.148,1.983-2.564,2.605-4.242c0.617-1.679,0.897-3.616,0.843-5.808C121.843,70.06,121.452,68.131,120.728,66.52z
	 M115.868,76.402c-0.366,1.141-0.885,2.106-1.557,2.89c-0.67,0.785-1.471,1.38-2.404,1.792c-0.928,0.409-1.947,0.628-3.058,0.656
	l-4.669,0.118l-0.452-17.807l3.899-0.101c1.258-0.03,2.418,0.109,3.461,0.418c1.05,0.312,1.96,0.809,2.723,1.492
	c0.764,0.684,1.373,1.568,1.819,2.655c0.445,1.086,0.684,2.398,0.72,3.924C116.394,73.938,116.229,75.257,115.868,76.402z
	 M153.166,84.876l-0.671-26.327l-7.342,0.188l-4.261,14.933c-0.055,0.189-0.116,0.403-0.188,0.644
	c-0.068,0.238-0.136,0.488-0.202,0.75c-0.067,0.263-0.134,0.534-0.202,0.809c-0.072,0.278-0.141,0.546-0.207,0.809
	c-0.146,0.605-0.299,1.23-0.458,1.88c-0.188-0.653-0.366-1.285-0.531-1.892c-0.152-0.519-0.305-1.056-0.464-1.614
	c-0.158-0.559-0.305-1.029-0.438-1.411l-5.078-14.602l-7.379,0.186l0.665,26.328l4.895-0.125l-0.402-15.958
	c-0.02-0.485-0.043-1.056-0.086-1.718c-0.036-0.66-0.079-1.285-0.122-1.883c-0.055-0.699-0.109-1.407-0.164-2.128
	c0.298,0.977,0.586,1.904,0.854,2.781c0.122,0.373,0.243,0.756,0.365,1.15c0.123,0.396,0.245,0.778,0.361,1.15
	c0.115,0.373,0.219,0.717,0.322,1.038c0.104,0.324,0.189,0.604,0.275,0.836l5.114,14.566l3.925-0.101l4.376-14.808
	c0.067-0.237,0.147-0.519,0.238-0.848c0.091-0.324,0.183-0.678,0.28-1.049c0.098-0.379,0.195-0.77,0.299-1.169
	c0.104-0.4,0.195-0.791,0.287-1.166c0.215-0.891,0.439-1.834,0.678-2.823c-0.013,0.623-0.024,1.266-0.043,1.928
	c-0.012,0.562-0.018,1.179-0.024,1.85c0,0.671,0.007,1.328,0.024,1.962l0.409,15.958L153.166,84.876z"/>
</svg>
