<?xml version="1.0" encoding="utf-8"?>
<!-- Generator: Adobe Illustrator 15.0.2, SVG Export Plug-In . SVG Version: 6.00 Build 0)  -->
<!DOCTYPE svg PUBLIC "-//W3C//DTD SVG 1.1//EN" "http://www.w3.org/Graphics/SVG/1.1/DTD/svg11.dtd">
<svg version="1.1" id="Layer_1" xmlns="http://www.w3.org/2000/svg" xmlns:xlink="http://www.w3.org/1999/xlink" x="0px" y="0px"
	 width="68px" height="68px" viewBox="0 0 68 68" enable-background="new 0 0 68 68" xml:space="preserve">
<g>
	<circle fill="#7CBFC1" cx="33.635" cy="34.167" r="32"/>
	<g>
		<path fill="#FFFFFF" d="M27.32,48.362l-0.967-6.328h-9.439l-3.428,6.328H8.318l13.834-24.768h6.117l4.184,24.768H27.32z
			 M24.771,30.187c-0.023-0.176-0.053-0.396-0.088-0.659s-0.07-0.533-0.105-0.809s-0.064-0.533-0.088-0.773
			s-0.035-0.419-0.035-0.536c-0.047,0.141-0.132,0.354-0.255,0.642s-0.264,0.606-0.422,0.958s-0.331,0.715-0.519,1.09
			s-0.363,0.721-0.527,1.037l-3.727,6.996h6.943L24.771,30.187z"/>
		<path fill="#FFFFFF" d="M46.877,23.595c1.91,0,3.611,0.223,5.105,0.668s2.758,1.11,3.789,1.995s1.818,1.986,2.363,3.305
			s0.818,2.856,0.818,4.614c0,1.559-0.18,2.991-0.537,4.298s-0.855,2.484-1.494,3.533s-1.4,1.969-2.285,2.76s-1.852,1.453-2.9,1.986
			s-2.164,0.935-3.348,1.204s-2.391,0.404-3.621,0.404H34.607l4.817-24.768H46.877z M40.566,44.354h4.043
			c1.359,0,2.619-0.217,3.779-0.65s2.162-1.069,3.006-1.907s1.506-1.875,1.986-3.111s0.721-2.663,0.721-4.28
			c0-1.148-0.164-2.147-0.492-2.997s-0.801-1.556-1.416-2.118s-1.367-0.984-2.258-1.266s-1.898-0.422-3.023-0.422h-3.094
			L40.566,44.354z"/>
	</g>
	<g>
		<g>
			<path fill="#FFFFFF" d="M32.441,17.25c0.018,0.701-0.072,1.321-0.27,1.858c-0.198,0.537-0.477,0.99-0.834,1.357
				c-0.357,0.369-0.783,0.65-1.279,0.848c-0.496,0.195-1.033,0.301-1.61,0.314l-3.408,0.088l-0.214-8.425l3.049-0.077
				c0.654-0.018,1.256,0.049,1.807,0.199c0.55,0.15,1.027,0.389,1.43,0.717c0.403,0.329,0.721,0.752,0.954,1.27
				C32.296,15.915,32.421,16.532,32.441,17.25z M30.665,17.294c-0.013-0.488-0.089-0.908-0.231-1.256s-0.337-0.631-0.582-0.85
				c-0.244-0.219-0.535-0.378-0.87-0.478c-0.335-0.099-0.705-0.144-1.107-0.134l-1.249,0.032l0.145,5.698l1.494-0.038
				c0.355-0.009,0.682-0.079,0.979-0.21c0.298-0.132,0.554-0.322,0.769-0.573c0.216-0.251,0.381-0.56,0.498-0.925
				C30.625,18.195,30.677,17.773,30.665,17.294z"/>
			<path fill="#FFFFFF" d="M40.879,21.313l-0.131-5.106c-0.006-0.203-0.008-0.413-0.008-0.628c0.002-0.215,0.004-0.412,0.008-0.592
				c0.006-0.212,0.01-0.418,0.014-0.617c-0.076,0.316-0.148,0.618-0.217,0.903c-0.029,0.12-0.059,0.245-0.092,0.373
				s-0.064,0.253-0.096,0.374c-0.031,0.119-0.061,0.232-0.09,0.336c-0.029,0.105-0.055,0.195-0.076,0.271l-1.4,4.738l-1.256,0.032
				l-1.637-4.661c-0.027-0.074-0.055-0.164-0.088-0.268c-0.033-0.103-0.066-0.213-0.104-0.332s-0.076-0.241-0.115-0.368
				c-0.039-0.126-0.078-0.249-0.117-0.368c-0.086-0.28-0.178-0.577-0.273-0.89c0.018,0.23,0.035,0.457,0.053,0.681
				c0.014,0.191,0.027,0.392,0.039,0.603c0.014,0.212,0.021,0.395,0.027,0.55l0.129,5.106l-1.567,0.04l-0.213-8.425l2.362-0.06
				l1.625,4.673c0.043,0.122,0.09,0.272,0.141,0.451s0.1,0.351,0.148,0.517c0.053,0.194,0.109,0.396,0.17,0.605
				c0.051-0.208,0.1-0.408,0.146-0.602c0.021-0.084,0.043-0.17,0.066-0.259c0.021-0.088,0.043-0.175,0.064-0.259
				s0.043-0.164,0.064-0.24c0.023-0.077,0.043-0.146,0.061-0.206l1.363-4.778l2.35-0.061l0.215,8.425L40.879,21.313z"/>
		</g>
	</g>
</g>
</svg>
