<?xml version="1.0" encoding="utf-8"?>
<!-- Generator: Adobe Illustrator 15.0.2, SVG Export Plug-In . SVG Version: 6.00 Build 0)  -->
<!DOCTYPE svg PUBLIC "-//W3C//DTD SVG 1.1//EN" "http://www.w3.org/Graphics/SVG/1.1/DTD/svg11.dtd">
<svg version="1.1" id="Layer_1" xmlns="http://www.w3.org/2000/svg" xmlns:xlink="http://www.w3.org/1999/xlink" x="0px" y="0px"
	 width="68px" height="68px" viewBox="0 0 68 68" enable-background="new 0 0 68 68" xml:space="preserve">
<path fill="#15AEEF" d="M28.107,27.524c0-3.021-2.053-3.021-2.053-3.021h-8.448v6.479h7.923
	C26.898,30.98,28.107,30.543,28.107,27.524L28.107,27.524z M28.107,27.524 M26.054,35.456h-8.448v7.759h8.058
	c1.212-0.035,3.45-0.412,3.45-3.772C29.114,35.418,26.054,35.456,26.054,35.456L26.054,35.456z M26.054,35.456 M47.688,30.98
	c-4.484,0-5.107,4.476-5.107,4.476h9.535C52.115,35.456,52.174,30.98,47.688,30.98L47.688,30.98z M47.688,30.98 M34.354,2.166
	c-17.676,0-32.001,14.329-32.001,32.002s14.325,31.999,32.001,31.999c17.674,0,31.999-14.326,31.999-31.999
	S52.027,2.166,34.354,2.166L34.354,2.166z M41.33,21.054h11.979v3.574H41.33V21.054z M35.273,39.804
	c0,8.862-9.219,8.571-9.219,8.571H10.949V19.343h15.105c4.59,0,8.213,2.536,8.213,7.731c0,5.194-4.428,5.524-4.428,5.524
	C35.678,32.599,35.273,39.804,35.273,39.804L35.273,39.804z M47.746,44.382c4.824,0,4.654-3.122,4.654-3.122h5.109
	c0,8.289-9.934,7.72-9.934,7.72c-11.922,0-11.154-11.096-11.154-11.096s-0.012-11.155,11.15-11.155
	c11.752,0,10.107,12.603,10.107,12.603H42.637C42.637,44.725,47.746,44.382,47.746,44.382L47.746,44.382z M47.746,44.382"/>
</svg>
