<?xml version="1.0" encoding="utf-8"?>
<!-- Generator: Adobe Illustrator 15.0.2, SVG Export Plug-In . SVG Version: 6.00 Build 0)  -->
<!DOCTYPE svg PUBLIC "-//W3C//DTD SVG 1.1//EN" "http://www.w3.org/Graphics/SVG/1.1/DTD/svg11.dtd">
<svg version="1.1" id="Layer_1" xmlns="http://www.w3.org/2000/svg" xmlns:xlink="http://www.w3.org/1999/xlink" x="0px" y="0px"
	 width="250px" height="250px" viewBox="0 0 250 250" enable-background="new 0 0 250 250" xml:space="preserve">
<path fill="#00C0E1" d="M225.635,125.166c0,55.227-44.772,100-100.001,100s-99.999-44.773-99.999-100
	c0-55.226,44.771-100,99.999-100S225.635,69.94,225.635,125.166z M120.726,66.52c-0.724-1.62-1.72-2.939-2.98-3.969
	c-1.252-1.024-2.752-1.771-4.467-2.24c-1.72-0.469-3.598-0.677-5.645-0.621l-9.525,0.24l0.668,26.325l10.648-0.274
	c1.807-0.041,3.482-0.372,5.033-0.983c1.548-0.614,2.877-1.493,4-2.649c1.115-1.147,1.984-2.561,2.602-4.24
	c0.618-1.678,0.9-3.615,0.844-5.808C121.841,70.057,121.45,68.129,120.726,66.52z M115.868,76.398
	c-0.366,1.144-0.882,2.106-1.557,2.893c-0.673,0.781-1.468,1.38-2.406,1.787c-0.925,0.41-1.947,0.629-3.055,0.662l-4.67,0.116
	l-0.453-17.807l3.9-0.101c1.26-0.031,2.42,0.11,3.459,0.419c1.051,0.309,1.959,0.806,2.728,1.49
	c0.763,0.684,1.372,1.569,1.815,2.656c0.446,1.087,0.686,2.401,0.724,3.925C116.392,73.938,116.228,75.255,115.868,76.398z
	 M153.165,84.874l-0.673-26.328l-7.34,0.189l-4.259,14.932c-0.058,0.189-0.12,0.404-0.189,0.646c-0.07,0.236-0.133,0.488-0.201,0.75
	c-0.07,0.262-0.132,0.536-0.202,0.81c-0.075,0.276-0.14,0.545-0.208,0.81c-0.145,0.602-0.299,1.23-0.46,1.876
	c-0.188-0.652-0.366-1.284-0.53-1.889c-0.15-0.521-0.301-1.059-0.465-1.617c-0.158-0.557-0.303-1.026-0.434-1.408l-5.078-14.604
	l-7.385,0.186l0.668,26.329l4.895-0.126l-0.402-15.958c-0.02-0.485-0.044-1.055-0.088-1.717c-0.031-0.658-0.076-1.285-0.12-1.883
	c-0.058-0.699-0.106-1.405-0.164-2.126c0.296,0.977,0.586,1.906,0.856,2.781c0.12,0.372,0.238,0.756,0.366,1.15
	c0.12,0.397,0.239,0.778,0.359,1.149c0.113,0.372,0.22,0.719,0.32,1.037c0.108,0.325,0.188,0.605,0.277,0.838l5.116,14.565
	l3.922-0.1l4.375-14.808c0.07-0.236,0.146-0.516,0.24-0.848c0.087-0.325,0.182-0.677,0.275-1.049
	c0.102-0.377,0.195-0.768,0.304-1.168c0.101-0.4,0.195-0.791,0.282-1.166c0.217-0.892,0.441-1.836,0.683-2.823
	c-0.015,0.621-0.026,1.266-0.046,1.928c-0.012,0.561-0.018,1.178-0.024,1.849c0,0.67,0.007,1.326,0.024,1.962l0.41,15.954
	L153.165,84.874z M71.099,170h38.729c4.648,0,9.065-0.611,13.236-1.361c4.177-0.756,7.832-2.153,10.963-3.969
	c3.131-1.807,5.619-4.294,7.471-7.331c1.847-3.043,2.772-6.879,2.772-11.459c0-2.086-0.34-4.069-1.015-5.922
	c-0.68-1.847-1.688-3.523-3.023-5.004c-1.336-1.48-2.992-2.742-4.971-3.77c-1.978-1.025-4.266-1.759-6.867-2.199
	c2.671-0.548,5.109-1.347,7.303-2.384c2.197-1.047,4.081-2.346,5.637-3.901c1.558-1.558,2.754-3.391,3.592-5.495
	c0.845-2.104,1.268-4.495,1.268-7.173c0-2.816-0.556-5.335-1.677-7.551c-1.116-2.215-2.829-4.092-5.136-5.63
	c-2.311-1.537-5.209-2.772-8.706-3.579C127.178,92.466,123.025,92,118.229,92h-32.08L71.099,170z M93.949,135h18.128
	c5.644,0,9.707,1.033,12.195,2.791s3.737,4.36,3.737,7.656c0,2.344-0.41,4.321-1.235,5.859c-0.826,1.536-2.066,2.784-3.737,3.698
	c-1.661,0.912-3.778,1.819-6.344,2.185c-2.563,0.365-5.588,0.811-9.065,0.811h-18.02L93.949,135z M99.941,104h16.53
	c2.163,0,4.097,0.208,5.799,0.466c1.704,0.252,3.13,0.741,4.283,1.384c1.152,0.637,2.035,1.521,2.64,2.599
	c0.605,1.082,0.901,2.436,0.901,4.05c0,1.901-0.315,3.549-0.957,4.924c-0.644,1.372-1.664,2.5-3.076,3.375
	c-1.41,0.883-3.244,1.362-5.493,1.763c-2.257,0.4-4.978,0.44-8.158,0.44H96.255L99.941,104z M165.118,170l15.052-78h-16.206
	l-14.994,78H165.118z"/>
</svg>
