<?xml version="1.0" encoding="utf-8"?>
<!-- Generator: Adobe Illustrator 15.0.2, SVG Export Plug-In . SVG Version: 6.00 Build 0)  -->
<!DOCTYPE svg PUBLIC "-//W3C//DTD SVG 1.1//EN" "http://www.w3.org/Graphics/SVG/1.1/DTD/svg11.dtd">
<svg version="1.1" id="Layer_1" xmlns="http://www.w3.org/2000/svg" xmlns:xlink="http://www.w3.org/1999/xlink" x="0px" y="0px"
	 width="68px" height="68px" viewBox="0 0 68 68" enable-background="new 0 0 68 68" xml:space="preserve">
<g>
	<circle fill="#00C0E1" cx="33.635" cy="34.166" r="32"/>
	<g>
		<g>
			<path fill="#FFFFFF" d="M32.441,17.25c0.018,0.701-0.072,1.321-0.27,1.858c-0.198,0.537-0.477,0.99-0.834,1.357
				c-0.357,0.369-0.783,0.65-1.279,0.847c-0.496,0.195-1.033,0.301-1.61,0.314l-3.408,0.088l-0.214-8.424l3.049-0.077
				c0.654-0.018,1.256,0.049,1.807,0.199c0.55,0.15,1.027,0.389,1.43,0.717c0.403,0.329,0.721,0.752,0.954,1.27
				C32.296,15.915,32.421,16.532,32.441,17.25z M30.665,17.293c-0.013-0.488-0.089-0.908-0.231-1.256s-0.337-0.631-0.582-0.85
				c-0.244-0.219-0.535-0.378-0.87-0.478c-0.335-0.099-0.705-0.144-1.107-0.134l-1.249,0.032l0.145,5.698l1.494-0.038
				c0.355-0.009,0.682-0.079,0.979-0.21c0.298-0.132,0.554-0.322,0.769-0.573c0.216-0.251,0.381-0.56,0.498-0.925
				C30.625,18.195,30.677,17.773,30.665,17.293z"/>
			<path fill="#FFFFFF" d="M40.879,21.313l-0.131-5.106c-0.006-0.203-0.008-0.413-0.008-0.628c0.002-0.215,0.004-0.412,0.008-0.592
				c0.006-0.212,0.01-0.418,0.014-0.617c-0.076,0.316-0.148,0.618-0.217,0.903c-0.029,0.12-0.059,0.245-0.092,0.373
				s-0.064,0.253-0.096,0.374c-0.031,0.119-0.061,0.232-0.09,0.336c-0.029,0.105-0.055,0.195-0.076,0.271l-1.4,4.738l-1.256,0.032
				l-1.637-4.661c-0.027-0.074-0.055-0.164-0.088-0.268c-0.033-0.103-0.066-0.213-0.104-0.332s-0.076-0.241-0.115-0.368
				c-0.039-0.126-0.078-0.249-0.117-0.368c-0.086-0.28-0.178-0.577-0.273-0.89c0.018,0.23,0.035,0.457,0.053,0.681
				c0.014,0.191,0.027,0.392,0.039,0.603c0.014,0.212,0.021,0.395,0.027,0.55l0.129,5.106l-1.567,0.04l-0.213-8.424l2.362-0.06
				l1.625,4.673c0.043,0.122,0.09,0.272,0.141,0.451s0.1,0.351,0.148,0.517c0.053,0.194,0.109,0.396,0.17,0.605
				c0.051-0.208,0.1-0.408,0.146-0.602c0.021-0.084,0.043-0.17,0.066-0.259c0.021-0.088,0.043-0.175,0.064-0.259
				s0.043-0.164,0.064-0.24c0.023-0.077,0.043-0.146,0.061-0.206l1.363-4.778l2.35-0.061l0.215,8.424L40.879,21.313z"/>
		</g>
	</g>
	<g>
		<path fill="#FFFFFF" d="M21,23.594h10.266c1.535,0,2.862,0.129,3.982,0.387c1.119,0.258,2.047,0.633,2.785,1.125
			s1.287,1.093,1.645,1.802s0.535,1.515,0.535,2.417c0,0.855-0.135,1.62-0.404,2.294s-0.652,1.26-1.15,1.758s-1.1,0.914-1.803,1.248
			s-1.482,0.589-2.337,0.765c0.832,0.141,1.564,0.375,2.197,0.703s1.164,0.729,1.592,1.204s0.75,1.008,0.967,1.6
			s0.324,1.222,0.324,1.89c0,1.465-0.295,2.684-0.887,3.656s-1.389,1.749-2.391,2.329s-2.171,0.99-3.507,1.23
			s-2.748,0.36-4.236,0.36H16.184L21,23.594z M22.108,44.512h5.766c1.113,0,2.08-0.059,2.9-0.176s1.497-0.322,2.03-0.615
			s0.932-0.686,1.195-1.178s0.396-1.113,0.396-1.863c0-1.055-0.398-1.863-1.195-2.426s-2.098-0.844-3.902-0.844h-5.801
			L22.108,44.512z M24.235,33.578h5.168c1.02,0,1.89-0.064,2.61-0.193s1.307-0.334,1.758-0.615s0.779-0.642,0.984-1.081
			s0.307-0.964,0.307-1.573c0-0.516-0.096-0.946-0.29-1.292s-0.475-0.621-0.844-0.826s-0.826-0.349-1.371-0.431
			s-1.163-0.123-1.854-0.123h-5.291L24.235,33.578z"/>
		<path fill="#FFFFFF" d="M41.102,48.361L45.9,23.594h5.186L46.27,48.361H41.102z"/>
	</g>
</g>
</svg>
