<?xml version="1.0" encoding="utf-8"?>
<!-- Generator: Adobe Illustrator 15.0.2, SVG Export Plug-In . SVG Version: 6.00 Build 0)  -->
<!DOCTYPE svg PUBLIC "-//W3C//DTD SVG 1.1//EN" "http://www.w3.org/Graphics/SVG/1.1/DTD/svg11.dtd">
<svg version="1.1" id="Layer_1" xmlns="http://www.w3.org/2000/svg" xmlns:xlink="http://www.w3.org/1999/xlink" x="0px" y="0px"
	 width="184px" height="68px" viewBox="0 0 184 68" enable-background="new 0 0 184 68" xml:space="preserve">
<g>
	<path fill="#00AEEF" d="M52.273,24.688h4.353c3.582,0,5.577,1.542,5.713,5.667v5.033c-0.136,4.125-2.131,5.667-5.713,5.667h-4.353
		V24.688z M55.402,38.291h1.088c1.723,0,2.721-0.816,2.721-3.266v-4.307c0-2.312-0.771-3.265-2.721-3.265h-1.088V38.291z"/>
	<path fill="#00AEEF" d="M63.203,41.056l4.058-16.368h4.013l3.944,16.368h-2.992l-0.794-3.445h-4.33l-0.884,3.445H63.203z
		 M67.669,34.844h3.105l-1.519-6.619H69.21L67.669,34.844z"/>
	<path fill="#00AEEF" d="M74.449,24.688h3.083l2.879,11.699h0.045l2.857-11.699h3.06l-4.171,16.368h-3.559L74.449,24.688z"/>
	<path fill="#00AEEF" d="M87.554,41.056V24.688h8.569v2.766h-5.44v3.763h4.148v2.766h-4.148v4.308h5.668v2.765H87.554z"/>
	<path fill="#6DCFF6" d="M98.506,41.056V24.688h4.375l2.834,10.746h0.045l2.834-10.746h4.375v16.368h-2.675V28.179h-0.046
		l-3.332,12.876h-2.357l-3.333-12.876h-0.045v12.876H98.506z"/>
	<path fill="#6DCFF6" d="M114.286,41.056l4.059-16.368h4.013l3.944,16.368h-2.992l-0.794-3.445h-4.33l-0.884,3.445H114.286z
		 M118.753,34.844h3.105l-1.52-6.619h-0.045L118.753,34.844z"/>
	<path fill="#6DCFF6" d="M127.618,41.056V24.688h3.423l4.353,9.704h0.046v-9.704h2.856v16.368h-2.992l-4.783-10.564h-0.046v10.564
		H127.618z"/>
	<path fill="#6DCFF6" d="M140.905,41.056V24.688h3.423l4.353,9.704h0.045v-9.704h2.856v16.368h-2.992l-4.783-10.564h-0.046v10.564
		H140.905z"/>
	<path fill="#6DCFF6" d="M154.191,41.056V24.688h3.128v16.368H154.191z"/>
	<path fill="#6DCFF6" d="M159.928,41.056V24.688h3.423l4.353,9.704h0.046v-9.704h2.855v16.368h-2.992l-4.783-10.564h-0.045v10.564
		H159.928z"/>
	<path fill="#6DCFF6" d="M180.854,39.695c-0.839,0.952-1.745,1.587-2.925,1.587c-3.038,0-5.169-1.45-5.169-5.485v-5.849
		c0-4.036,2.131-5.486,5.169-5.486c3.197,0,4.92,1.836,5.033,5.554h-3.129c0-2.108-0.771-2.789-1.904-2.789
		c-1.246,0-2.04,0.499-2.04,2.313v6.665c0,1.814,0.794,2.313,2.04,2.313c1.18,0,1.904-0.861,1.904-2.267v-0.998h-2.198v-2.584h5.327
		v8.388h-1.632L180.854,39.695z"/>
</g>
<g>
	<path fill="#00AEEF" d="M1.211,46.881V15.736h25.083V2.231h10.396v44.649H1.211L1.211,46.881z M11.606,36.484h14.688V26.132H11.606
		V36.484L11.606,36.484z"/>
	<polygon fill="#6DCFF6" points="1.211,66.231 1.211,50.159 11.606,50.159 11.606,66.231 1.211,66.231 	"/>
	<rect x="13.752" y="50.159" fill="#6DCFF6" width="10.396" height="10.378"/>
	<polygon fill="#6DCFF6" points="26.294,66.231 26.294,50.159 36.689,50.159 36.689,66.231 26.294,66.231 	"/>
</g>
</svg>
