<?xml version="1.0" encoding="utf-8"?>
<!-- Generator: Adobe Illustrator 15.0.2, SVG Export Plug-In . SVG Version: 6.00 Build 0)  -->
<!DOCTYPE svg PUBLIC "-//W3C//DTD SVG 1.1//EN" "http://www.w3.org/Graphics/SVG/1.1/DTD/svg11.dtd">
<svg version="1.1" id="Layer_1" xmlns="http://www.w3.org/2000/svg" xmlns:xlink="http://www.w3.org/1999/xlink" x="0px" y="0px"
	 width="68px" height="68px" viewBox="0 0 68 68" enable-background="new 0 0 68 68" xml:space="preserve">
<g>
	<path fill-rule="evenodd" clip-rule="evenodd" fill="#15AEEF" d="M33.344,2.708c-17.671,0-32,14.333-32,32.017
		c0,14.146,9.169,26.147,21.884,30.382c1.599,0.297,2.185-0.695,2.185-1.539c0-0.765-0.029-3.287-0.042-5.962
		c-8.902,1.937-10.781-3.778-10.781-3.778c-1.455-3.7-3.553-4.686-3.553-4.686c-2.903-1.986,0.219-1.946,0.219-1.946
		c3.213,0.227,4.905,3.301,4.905,3.301c2.854,4.895,7.486,3.479,9.313,2.66c0.287-2.068,1.116-3.48,2.031-4.281
		c-7.108-0.809-14.58-3.555-14.58-15.823c0-3.496,1.25-6.352,3.297-8.594c-0.332-0.807-1.428-4.063,0.311-8.473
		c0,0,2.687-0.86,8.802,3.283c2.553-0.71,5.29-1.065,8.01-1.078c2.719,0.013,5.459,0.368,8.016,1.078
		c6.107-4.143,8.791-3.283,8.791-3.283c1.742,4.411,0.646,7.667,0.314,8.473c2.051,2.242,3.293,5.098,3.293,8.594
		c0,12.298-7.486,15.006-14.611,15.798c1.147,0.995,2.171,2.943,2.171,5.93c0,4.284-0.037,7.731-0.037,8.788
		c0,0.852,0.576,1.851,2.197,1.535c12.708-4.239,21.865-16.235,21.865-30.378C65.343,17.042,51.016,2.708,33.344,2.708z"/>
	<path fill="#15AEEF" d="M13.464,48.679c-0.07,0.159-0.321,0.207-0.549,0.097c-0.232-0.104-0.363-0.32-0.287-0.48
		c0.069-0.163,0.319-0.209,0.55-0.1C13.411,48.299,13.543,48.519,13.464,48.679L13.464,48.679z M13.069,48.386"/>
	<path fill="#15AEEF" d="M14.76,50.125c-0.152,0.142-0.451,0.075-0.653-0.149c-0.21-0.222-0.248-0.521-0.094-0.664
		c0.157-0.141,0.446-0.075,0.656,0.148C14.879,49.686,14.919,49.981,14.76,50.125L14.76,50.125z M14.455,49.797"/>
	<path fill="#15AEEF" d="M16.021,51.97c-0.196,0.136-0.517,0.009-0.715-0.276c-0.196-0.285-0.196-0.627,0.005-0.764
		c0.197-0.136,0.514-0.014,0.715,0.269C16.221,51.487,16.221,51.83,16.021,51.97L16.021,51.97z M16.021,51.97"/>
	<path fill="#15AEEF" d="M17.75,53.75c-0.176,0.194-0.549,0.142-0.822-0.122c-0.28-0.259-0.357-0.624-0.183-0.818
		c0.179-0.194,0.553-0.139,0.829,0.124C17.853,53.19,17.936,53.56,17.75,53.75L17.75,53.75z M17.75,53.75"/>
	<path fill="#15AEEF" d="M20.135,54.785c-0.078,0.251-0.438,0.364-0.8,0.258c-0.362-0.109-0.599-0.403-0.526-0.657
		c0.076-0.252,0.437-0.37,0.802-0.257C19.973,54.238,20.21,54.529,20.135,54.785L20.135,54.785z M20.135,54.785"/>
	<path fill="#15AEEF" d="M22.754,54.978c0.009,0.264-0.299,0.482-0.68,0.486c-0.382,0.009-0.692-0.205-0.696-0.464
		c0-0.268,0.301-0.483,0.683-0.491C22.441,54.503,22.754,54.716,22.754,54.978L22.754,54.978z M22.754,54.978"/>
	<path fill="#15AEEF" d="M25.19,54.562c0.046,0.258-0.219,0.522-0.597,0.594c-0.371,0.067-0.714-0.093-0.763-0.347
		c-0.045-0.265,0.223-0.528,0.594-0.599C24.803,54.145,25.142,54.299,25.19,54.562L25.19,54.562z M25.19,54.562"/>
</g>
</svg>
