<?xml version="1.0" encoding="utf-8"?>
<!-- Generator: Adobe Illustrator 15.0.2, SVG Export Plug-In . SVG Version: 6.00 Build 0)  -->
<!DOCTYPE svg PUBLIC "-//W3C//DTD SVG 1.1//EN" "http://www.w3.org/Graphics/SVG/1.1/DTD/svg11.dtd">
<svg version="1.1" id="Layer_1" xmlns="http://www.w3.org/2000/svg" xmlns:xlink="http://www.w3.org/1999/xlink" x="0px" y="0px"
	 width="68px" height="68px" viewBox="0 0 68 68" enable-background="new 0 0 68 68" xml:space="preserve">
<g>
	<path fill="#066C9A" d="M35.553,31.814v-0.066c-0.012,0.023-0.029,0.047-0.045,0.066H35.553z"/>
	<path fill="#15AEEF" d="M33.635,2.166c-17.674,0-32,14.328-32,32c0,17.676,14.326,32.001,32,32.001c17.671,0,32-14.325,32-32.001
		C65.636,16.494,51.307,2.166,33.635,2.166z M24.901,49.46H18.04V28.826h6.861V49.46z M21.469,26.006h-0.045
		c-2.301,0-3.789-1.586-3.789-3.566c0-2.023,1.535-3.567,3.879-3.567c2.348,0,3.793,1.543,3.836,3.567
		C25.35,24.42,23.862,26.006,21.469,26.006z M49.635,49.46h-6.858V38.42c0-2.773-0.993-4.668-3.477-4.668
		c-1.894,0-3.023,1.281-3.521,2.512c-0.182,0.441-0.227,1.051-0.227,1.672V49.46h-6.857c0,0,0.088-18.7,0-20.634h6.857v2.922
		c0.914-1.41,2.543-3.406,6.184-3.406c4.512,0,7.898,2.945,7.898,9.285V49.46z"/>
</g>
</svg>
