<?xml version="1.0" encoding="utf-8"?>
<!-- Generator: Adobe Illustrator 15.0.2, SVG Export Plug-In . SVG Version: 6.00 Build 0)  -->
<!DOCTYPE svg PUBLIC "-//W3C//DTD SVG 1.1//EN" "http://www.w3.org/Graphics/SVG/1.1/DTD/svg11.dtd">
<svg version="1.1" id="Layer_1" xmlns="http://www.w3.org/2000/svg" xmlns:xlink="http://www.w3.org/1999/xlink" x="0px" y="0px"
	 width="250px" height="250px" viewBox="0 0 250 250" enable-background="new 0 0 250 250" xml:space="preserve">
<path fill="#96EBF0" d="M225.135,125.166c0,55.228-44.771,100-100.001,100c-55.225,0-99.999-44.772-99.999-100
	c0-55.225,44.774-100,99.999-100C180.364,25.166,225.135,69.941,225.135,125.166z M57.447,92l-14.996,78h16.149l5.383-28h20.709
	c4.65,0,8.881-0.482,12.689-1.728s7.068-2.96,9.777-5.286c2.71-2.324,4.804-5.12,6.287-8.452c1.482-3.333,2.228-7.068,2.228-11.244
	c0-3.589-0.636-6.803-1.898-9.658c-1.263-2.857-3.113-5.288-5.548-7.303c-2.436-2.014-5.42-3.613-8.953-4.675
	C95.74,92.593,91.705,92,87.165,92H57.447z M71.235,104h14.392c2.013,0,3.851,0.573,5.517,1.013
	c1.667,0.439,3.107,1.302,4.315,2.237c1.208,0.934,2.142,2.212,2.802,3.658c0.659,1.447,0.988,3.221,0.988,5.234
	c0,4.835-1.422,8.431-4.26,10.555C92.15,128.821,87.896,130,82.221,130H66.346L71.235,104z M192.771,170l15.052-78h-21.588
	l-22.082,43.625c-0.55,1.099-1.24,2.512-2.063,4.178c-0.824,1.668-1.6,3.321-2.332,4.933c-0.879,1.867-1.776,3.817-2.691,5.831
	c-0.184-2.014-0.348-3.969-0.495-5.874c-0.146-1.646-0.293-3.321-0.438-5.024c-0.147-1.702-0.293-3.184-0.44-4.319L150.86,92
	h-21.698l-15.051,78h14.392l9.448-48.961c0.146-0.732,0.293-1.657,0.438-2.536c0.147-0.879,0.281-1.854,0.409-2.805
	c0.129-0.953,0.257-1.952,0.386-2.94c0.127-0.99,0.25-1.957,0.359-2.872c0.256-2.16,0.513-4.366,0.77-6.6
	c0.293,3.004,0.567,5.856,0.824,8.567c0.109,1.135,0.225,2.305,0.354,3.514c0.128,1.208,0.256,2.379,0.385,3.515
	c0.127,1.135,0.25,2.187,0.36,3.156c0.109,0.972,0.2,2.041,0.273,2.737L147.674,170h11.535l22.632-45.063
	c0.439-0.805,0.903-1.848,1.398-2.892c0.493-1.044,1.018-2.2,1.567-3.354c0.55-1.153,1.105-2.364,1.673-3.572
	c0.568-1.208,1.111-2.395,1.624-3.531c1.208-2.673,2.472-5.446,3.789-8.303c-0.476,1.905-0.952,3.861-1.427,5.875
	c-0.404,1.72-0.843,3.614-1.319,5.683c-0.477,2.069-0.915,4.347-1.317,6.362L178.38,170H192.771z M120.228,66.518
	c-0.727-1.618-1.722-2.938-2.979-3.968c-1.257-1.025-2.753-1.771-4.468-2.24c-1.721-0.47-3.602-0.677-5.646-0.623l-9.527,0.242
	l0.665,26.326l10.651-0.275c1.806-0.043,3.484-0.373,5.035-0.983c1.55-0.616,2.88-1.495,3.997-2.648
	c1.117-1.148,1.983-2.564,2.605-4.242c0.617-1.679,0.897-3.613,0.843-5.804C121.343,70.057,120.952,68.129,120.228,66.518z
	 M115.368,76.398c-0.366,1.141-0.885,2.106-1.557,2.893c-0.67,0.781-1.471,1.379-2.404,1.789c-0.928,0.409-1.947,0.628-3.058,0.659
	l-4.669,0.116l-0.452-17.805l3.899-0.101c1.258-0.031,2.418,0.11,3.461,0.418c1.05,0.311,1.96,0.809,2.723,1.492
	c0.764,0.684,1.373,1.569,1.819,2.653c0.445,1.087,0.684,2.398,0.72,3.925C115.894,73.938,115.729,75.256,115.368,76.398z
	 M152.666,84.873l-0.671-26.326l-7.342,0.189l-4.261,14.934c-0.055,0.189-0.116,0.402-0.188,0.641
	c-0.068,0.238-0.136,0.488-0.202,0.75c-0.067,0.263-0.134,0.537-0.202,0.812c-0.072,0.275-0.141,0.543-0.207,0.805
	c-0.146,0.605-0.299,1.233-0.458,1.88c-0.188-0.653-0.366-1.282-0.531-1.892c-0.152-0.519-0.305-1.056-0.464-1.611
	c-0.158-0.562-0.305-1.032-0.438-1.41l-5.078-14.604l-7.379,0.186l0.665,26.327l4.895-0.125l-0.402-15.957
	c-0.018-0.482-0.043-1.056-0.086-1.717c-0.036-0.659-0.079-1.285-0.122-1.883c-0.055-0.699-0.109-1.407-0.164-2.127
	c0.298,0.977,0.586,1.904,0.854,2.78c0.122,0.373,0.243,0.757,0.365,1.15c0.123,0.397,0.245,0.777,0.361,1.149
	c0.115,0.372,0.219,0.72,0.322,1.038c0.104,0.324,0.189,0.604,0.275,0.836l5.114,14.566l3.925-0.101l4.376-14.807
	c0.067-0.238,0.147-0.519,0.238-0.848c0.091-0.324,0.183-0.678,0.28-1.05c0.098-0.377,0.195-0.768,0.299-1.167
	c0.104-0.4,0.195-0.791,0.287-1.166c0.215-0.892,0.439-1.834,0.678-2.823c-0.013,0.623-0.024,1.267-0.043,1.929
	c-0.012,0.561-0.018,1.178-0.024,1.849c0,0.671,0.007,1.329,0.024,1.964l0.409,15.954L152.666,84.873z"/>
</svg>
