<?xml version="1.0" encoding="utf-8"?>
<!-- Generator: Adobe Illustrator 15.0.2, SVG Export Plug-In . SVG Version: 6.00 Build 0)  -->
<!DOCTYPE svg PUBLIC "-//W3C//DTD SVG 1.1//EN" "http://www.w3.org/Graphics/SVG/1.1/DTD/svg11.dtd">
<svg version="1.1" id="Layer_1" xmlns="http://www.w3.org/2000/svg" xmlns:xlink="http://www.w3.org/1999/xlink" x="0px" y="0px"
	 width="68px" height="68px" viewBox="0 0 68 68" enable-background="new 0 0 68 68" xml:space="preserve">
<g>
	<circle fill="#96EBF0" cx="33.135" cy="34.166" r="32"/>
	<g>
		<path fill="#FFFFFF" d="M20.984,23.594c1.453,0,2.744,0.17,3.875,0.51s2.086,0.832,2.865,1.477s1.371,1.424,1.775,2.338
			s0.607,1.945,0.607,3.094c0,1.336-0.238,2.537-0.713,3.604s-1.145,1.972-2.012,2.716s-1.91,1.315-3.129,1.714
			s-2.572,0.598-4.061,0.598h-6.627l-1.723,8.719H6.676l4.799-24.768H20.984z M14.322,35.652h5.08c1.816,0,3.178-0.34,4.086-1.02
			s1.363-1.793,1.363-3.34c0-0.645-0.105-1.198-0.316-1.661s-0.51-0.844-0.896-1.143s-0.848-0.519-1.381-0.659
			s-1.121-0.211-1.766-0.211h-4.605L14.322,35.652z"/>
		<path fill="#FFFFFF" d="M50.174,48.361l3.023-15.539c0.129-0.645,0.27-1.298,0.422-1.96s0.293-1.269,0.422-1.819
			c0.152-0.645,0.305-1.271,0.457-1.881c-0.422,0.914-0.826,1.799-1.213,2.654c-0.164,0.363-0.338,0.738-0.52,1.125
			s-0.359,0.765-0.535,1.134s-0.344,0.721-0.502,1.055s-0.307,0.63-0.447,0.888l-7.242,14.344h-3.691l-1.652-14.396
			c-0.023-0.223-0.053-0.489-0.088-0.8s-0.074-0.647-0.115-1.011s-0.082-0.738-0.123-1.125s-0.078-0.762-0.113-1.125
			c-0.082-0.867-0.17-1.781-0.264-2.742c-0.082,0.715-0.164,1.418-0.246,2.109c-0.035,0.293-0.074,0.598-0.115,0.914
			s-0.082,0.627-0.123,0.932s-0.084,0.598-0.131,0.879s-0.094,0.539-0.141,0.773l-3.023,15.592h-4.605l4.816-24.768h6.943
			l1.547,13.852c0.047,0.363,0.094,0.817,0.141,1.362s0.094,1.081,0.141,1.608c0.047,0.609,0.1,1.236,0.158,1.881
			c0.293-0.645,0.58-1.266,0.861-1.863c0.234-0.516,0.482-1.04,0.746-1.573s0.484-0.976,0.66-1.327l7.066-13.939h6.908
			l-4.816,24.768H50.174z"/>
	</g>
	<g>
		<g>
			<path fill="#FFFFFF" d="M31.941,17.25c0.018,0.701-0.072,1.32-0.27,1.857c-0.199,0.537-0.477,0.99-0.834,1.357
				c-0.357,0.369-0.783,0.65-1.279,0.848c-0.496,0.195-1.033,0.301-1.611,0.314l-3.408,0.088l-0.213-8.424l3.049-0.077
				c0.654-0.018,1.256,0.049,1.807,0.199c0.549,0.15,1.027,0.389,1.43,0.717c0.402,0.329,0.721,0.752,0.953,1.27
				C31.797,15.915,31.922,16.531,31.941,17.25z M30.164,17.293c-0.012-0.488-0.088-0.908-0.23-1.256
				c-0.143-0.347-0.338-0.63-0.582-0.849s-0.535-0.378-0.871-0.478c-0.334-0.099-0.705-0.144-1.107-0.134l-1.248,0.032l0.145,5.698
				l1.494-0.037c0.355-0.01,0.682-0.08,0.979-0.211c0.299-0.131,0.555-0.322,0.77-0.572c0.215-0.252,0.381-0.561,0.498-0.926
				C30.125,18.195,30.178,17.773,30.164,17.293z"/>
			<path fill="#FFFFFF" d="M40.379,21.313l-0.131-5.105c-0.006-0.203-0.008-0.414-0.008-0.628c0.002-0.215,0.004-0.412,0.008-0.592
				c0.006-0.212,0.01-0.418,0.014-0.617c-0.076,0.316-0.148,0.618-0.217,0.903c-0.029,0.12-0.059,0.245-0.092,0.373
				s-0.064,0.253-0.096,0.374c-0.031,0.119-0.061,0.232-0.09,0.336c-0.029,0.105-0.055,0.195-0.076,0.271l-1.4,4.738l-1.256,0.032
				l-1.637-4.661c-0.027-0.074-0.055-0.164-0.088-0.268c-0.033-0.102-0.066-0.213-0.104-0.332s-0.076-0.241-0.115-0.368
				c-0.039-0.126-0.078-0.249-0.117-0.368c-0.086-0.28-0.178-0.577-0.273-0.89c0.018,0.23,0.035,0.457,0.053,0.681
				c0.014,0.191,0.027,0.392,0.039,0.603c0.014,0.211,0.021,0.395,0.027,0.549l0.129,5.106l-1.566,0.04l-0.213-8.424l2.361-0.06
				l1.625,4.673c0.043,0.121,0.09,0.271,0.141,0.451c0.051,0.178,0.1,0.35,0.148,0.516c0.053,0.195,0.109,0.396,0.17,0.605
				c0.051-0.207,0.1-0.408,0.146-0.602c0.021-0.084,0.043-0.17,0.066-0.258c0.021-0.088,0.043-0.176,0.064-0.26
				s0.043-0.164,0.064-0.24c0.023-0.076,0.043-0.145,0.061-0.205l1.363-4.779l2.35-0.061l0.215,8.424L40.379,21.313z"/>
		</g>
	</g>
</g>
</svg>
