<?xml version="1.0" encoding="utf-8"?>
<!-- Generator: Adobe Illustrator 15.0.2, SVG Export Plug-In . SVG Version: 6.00 Build 0)  -->
<!DOCTYPE svg PUBLIC "-//W3C//DTD SVG 1.1//EN" "http://www.w3.org/Graphics/SVG/1.1/DTD/svg11.dtd">
<svg version="1.1" id="Layer_1" xmlns="http://www.w3.org/2000/svg" xmlns:xlink="http://www.w3.org/1999/xlink" x="0px" y="0px"
	 width="68px" height="68px" viewBox="0 0 68 68" enable-background="new 0 0 68 68" xml:space="preserve">
<path fill="#15AEEF" d="M65.636,34.166c0,17.674-14.327,32.001-32,32.001c-17.674,0-32-14.327-32-32.001c0-17.673,14.326-32,32-32
	C51.309,2.166,65.636,16.493,65.636,34.166z M44.178,56.258c2.586-0.521,4.992-1.645,7.141-3.346
	c2.221-1.709,4.069-4.181,5.496-7.351c1.434-3.169,2.16-6.717,2.16-10.549c0-1.9-0.178-3.744-0.531-5.483
	c-0.355-1.749-0.875-3.407-1.539-4.924c-1.371-3.214-3.283-5.806-5.689-7.71c-2.402-1.864-5.008-3.262-7.742-3.866
	C40.83,12.443,37.389,12,33.246,12H14v13h3v20h-3v12h18.734C37.853,57,41.703,56.76,44.178,56.258z M16,47h3V23h-3v-9h17.246
	c3.998,0,7.292,0.427,9.793,0.982c2.445,0.54,4.783,1.739,6.942,3.415c2.134,1.688,3.845,4.054,5.087,6.966
	c0.611,1.396,1.088,2.938,1.415,4.547c0.326,1.607,0.491,3.329,0.491,5.096c0,3.546-0.667,6.822-1.984,9.732
	c-1.29,2.868-2.936,5.089-4.902,6.603c-1.91,1.513-4.031,2.497-6.306,2.955C41.436,54.772,37.719,55,32.734,55H16V47z
	 M37.521,18.081c-9.409,0-17.035,7.626-17.035,17.034s7.626,17.033,17.035,17.033c9.406,0,17.031-7.626,17.031-17.033
	S46.928,18.081,37.521,18.081z M48.158,35.331c0-5.909-4.807-10.716-10.715-10.716c-5.909,0-10.716,4.807-10.716,10.716
	c0,5.908,4.807,10.715,10.716,10.715C43.352,46.046,48.158,41.239,48.158,35.331z M46.158,35.331c0,4.806-3.91,8.715-8.715,8.715
	c-4.807,0-8.716-3.909-8.716-8.715s3.91-8.716,8.716-8.716C42.248,26.615,46.158,30.525,46.158,35.331z M37.385,30.638
	c-0.018,0-0.034,0.005-0.053,0.005c-0.029,1.47-1.226,2.653-2.704,2.653c-0.414,0-0.802-0.101-1.153-0.267
	c-0.32,0.613-0.518,1.299-0.518,2.037c0,2.446,1.982,4.428,4.427,4.428c2.445,0,4.43-1.981,4.43-4.428
	C41.814,32.621,39.83,30.638,37.385,30.638z"/>
</svg>
