<?xml version="1.0" encoding="utf-8"?>
<!-- Generator: Adobe Illustrator 15.0.2, SVG Export Plug-In . SVG Version: 6.00 Build 0)  -->
<!DOCTYPE svg PUBLIC "-//W3C//DTD SVG 1.1//EN" "http://www.w3.org/Graphics/SVG/1.1/DTD/svg11.dtd">
<svg version="1.1" id="Layer_1" xmlns="http://www.w3.org/2000/svg" xmlns:xlink="http://www.w3.org/1999/xlink" x="0px" y="0px"
	 width="68px" height="68px" viewBox="0 0 68 68" enable-background="new 0 0 68 68" xml:space="preserve">
<path fill="#15AEEF" d="M65.5,34c0,17.673-14.327,32-32,32s-32-14.327-32-32s14.327-32,32-32S65.5,16.327,65.5,34z M56.454,36.4
	C55.924,36.779,55,37.125,55,37.448V17.39c0-2.695-2.277-4.39-4.771-4.39H15.065C12.572,13,11,14.695,11,17.39v20.085
	c-1-0.331-1.305-0.685-1.85-1.074c-1.498-1.045-2.585,0.378-1.667,1.738c1.788,2.19,5.135,4.91,10.348,7.05
	c-5.515,18.785,13.432,21.769,13.142,12.138c0,0.193,0-6.429,0.007-10.416c0.305,0.507,0.615,0.858,0.899,0.923
	c0.966,0.225,1.683,0.438,2.426,0.563c0.007,3.952,0.016,9.102,0.016,8.931c-0.29,9.631,18.695,6.647,13.167-12.138
	c5.213-2.14,8.675-4.859,10.462-7.05C58.871,36.778,57.952,35.355,56.454,36.4z M37.287,41.186C34.781,41.061,34,42.231,34,43.98
	c0,0-1.617-0.921-2.552-1.788c-0.97-0.906-3.002-1.054-3.938-1.007C24.562,41.278,19,41.837,13,38.932V19.593
	C13,16.181,14.096,15,17.218,15h31.124C51.299,15,52,16.382,52,19.593v19.171C46,41.848,40.288,41.279,37.287,41.186z
	 M26.005,27.765c-3.248,0-5.892,2.468-5.892,5.514c0,3.048,2.644,5.515,5.892,5.515c3.249,0,5.893-2.467,5.893-5.515
	C31.898,30.232,29.254,27.765,26.005,27.765 M39.943,27.663c-3.273,0-5.93,2.493-5.93,5.553c0,3.071,2.657,5.552,5.93,5.552
	s5.93-2.48,5.93-5.552C45.873,30.156,43.217,27.663,39.943,27.663"/>
</svg>
