<?xml version="1.0" encoding="utf-8"?>
<!-- Generator: Adobe Illustrator 15.0.2, SVG Export Plug-In . SVG Version: 6.00 Build 0)  -->
<!DOCTYPE svg PUBLIC "-//W3C//DTD SVG 1.1//EN" "http://www.w3.org/Graphics/SVG/1.1/DTD/svg11.dtd">
<svg version="1.1" id="Layer_1" xmlns="http://www.w3.org/2000/svg" xmlns:xlink="http://www.w3.org/1999/xlink" x="0px" y="0px"
	 width="68px" height="68px" viewBox="0 0 68 68" enable-background="new 0 0 68 68" xml:space="preserve">
<path fill="#15AEEF" d="M33.635,2.167c-17.672,0-32,14.328-32,32c0,17.676,14.328,32,32,32c17.671,0,32-14.324,32-32
	C65.635,16.495,51.307,2.167,33.635,2.167z M46.359,27.643c0.014,0.281,0.02,0.563,0.02,0.848c0,8.676-6.604,18.68-18.679,18.68
	c-3.709,0-7.158-1.086-10.064-2.948c0.516,0.058,1.037,0.089,1.566,0.089c3.078,0,5.906-1.047,8.152-2.809
	c-2.871-0.055-5.297-1.953-6.131-4.559c0.4,0.075,0.811,0.117,1.234,0.117c0.6,0,1.18-0.082,1.729-0.23
	c-3-0.605-5.266-3.258-5.266-6.438c0-0.027,0-0.055,0-0.082c0.887,0.492,1.898,0.785,2.975,0.82c-1.762-1.176-2.92-3.188-2.92-5.465
	c0-1.203,0.324-2.332,0.889-3.301c3.236,3.973,8.076,6.586,13.531,6.859c-0.111-0.48-0.17-0.98-0.17-1.496
	c0-3.625,2.939-6.563,6.566-6.563c1.887,0,3.594,0.797,4.791,2.07c1.494-0.293,2.9-0.84,4.17-1.594
	c-0.492,1.535-1.531,2.82-2.887,3.633c1.328-0.156,2.594-0.512,3.77-1.031C48.756,25.561,47.643,26.717,46.359,27.643z"/>
</svg>
