<?xml version="1.0" encoding="utf-8"?>
<!-- Generator: Adobe Illustrator 15.0.2, SVG Export Plug-In . SVG Version: 6.00 Build 0)  -->
<!DOCTYPE svg PUBLIC "-//W3C//DTD SVG 1.1//EN" "http://www.w3.org/Graphics/SVG/1.1/DTD/svg11.dtd">
<svg version="1.1" id="Layer_1" xmlns="http://www.w3.org/2000/svg" xmlns:xlink="http://www.w3.org/1999/xlink" x="0px" y="0px"
	 width="250px" height="250px" viewBox="0 0 250 250" enable-background="new 0 0 250 250" xml:space="preserve">
<path fill="#29668F" d="M225.635,125.166c0,55.228-44.771,100-100.001,100c-55.229,0-99.999-44.772-99.999-100
	c0-55.23,44.77-100,99.999-100C180.864,25.166,225.635,69.936,225.635,125.166z M74.835,157.194
	c-1.849-0.495-3.442-1.236-4.778-2.226c-1.337-0.988-2.368-2.224-3.102-3.707c-0.731-1.483-1.098-3.214-1.098-5.191
	c0-1.574,0.098-3.231,0.298-4.972c0.202-1.739,0.434-3.295,0.69-4.54L75.251,92H59.045l-8.129,42.58
	c-0.147,0.697-0.293,1.561-0.44,2.533c-0.146,0.971-0.286,1.982-0.414,3.009c-0.129,1.024-0.227,2.05-0.299,3.056
	c-0.073,1.008-0.109,1.901-0.109,2.669c0,3.992,0.695,7.537,2.087,10.632c1.391,3.094,3.387,5.686,5.987,7.773
	c2.6,2.088,5.786,3.671,9.559,4.752c3.771,1.081,8.02,1.621,12.743,1.621c5.347,0,10.095-0.604,14.251-1.813
	c4.156-1.208,7.764-3.048,10.822-5.52c3.057-2.473,5.596-5.604,7.61-9.394s3.534-8.349,4.56-13.549L126.666,92H110.46l-9.228,47.745
	c-0.659,3.368-1.538,6.239-2.637,8.546c-1.099,2.309-2.484,4.19-4.149,5.618c-1.667,1.429-3.613,2.462-5.848,3.084
	s-4.797,0.938-7.69,0.938C78.71,157.932,76.685,157.688,74.835,157.194z M151.635,129.27L115.819,170h17.249l24.993-29.225
	L171.959,170h16.863l-20.159-40.512L201.622,92h-17.194l-22.082,25.874L150.041,92h-16.973L151.635,129.27z M120.728,66.518
	c-0.727-1.618-1.722-2.939-2.979-3.968c-1.257-1.025-2.753-1.77-4.468-2.24c-1.721-0.469-3.602-0.677-5.646-0.622l-9.527,0.241
	l0.665,26.326l10.651-0.274c1.806-0.043,3.484-0.373,5.035-0.983c1.55-0.616,2.88-1.495,3.997-2.648
	c1.117-1.148,1.983-2.564,2.605-4.242c0.617-1.677,0.898-3.615,0.843-5.806C121.843,70.058,121.452,68.129,120.728,66.518z
	 M115.868,76.4c-0.366,1.141-0.885,2.104-1.557,2.891c-0.67,0.781-1.471,1.379-2.404,1.789c-0.928,0.409-1.947,0.628-3.058,0.659
	l-4.669,0.116l-0.452-17.805l3.899-0.101c1.258-0.031,2.418,0.11,3.461,0.418c1.05,0.311,1.96,0.809,2.723,1.492
	c0.764,0.684,1.373,1.569,1.819,2.655c0.445,1.087,0.684,2.399,0.72,3.925C116.394,73.937,116.229,75.255,115.868,76.4z
	 M153.166,84.873l-0.671-26.326l-7.342,0.189l-4.261,14.932c-0.055,0.189-0.116,0.403-0.188,0.644
	c-0.068,0.238-0.136,0.488-0.202,0.75c-0.067,0.263-0.134,0.535-0.202,0.809c-0.072,0.277-0.141,0.546-0.207,0.809
	c-0.146,0.604-0.299,1.231-0.458,1.878c-0.188-0.653-0.366-1.283-0.531-1.891c-0.152-0.519-0.305-1.056-0.464-1.615
	c-0.158-0.558-0.305-1.028-0.438-1.409l-5.078-14.604l-7.379,0.187l0.665,26.327l4.895-0.125l-0.402-15.956
	c-0.018-0.485-0.043-1.057-0.086-1.719c-0.036-0.659-0.079-1.284-0.122-1.883c-0.055-0.698-0.109-1.407-0.164-2.127
	c0.298,0.977,0.586,1.904,0.854,2.78c0.122,0.372,0.243,0.757,0.365,1.15c0.123,0.397,0.245,0.778,0.361,1.15
	c0.115,0.373,0.219,0.718,0.322,1.038c0.104,0.323,0.189,0.604,0.275,0.836l5.114,14.564l3.925-0.1l4.376-14.806
	c0.067-0.238,0.147-0.519,0.238-0.849c0.091-0.323,0.183-0.677,0.28-1.05c0.098-0.378,0.195-0.769,0.299-1.168
	c0.104-0.4,0.195-0.791,0.287-1.166c0.215-0.891,0.439-1.834,0.678-2.823c-0.013,0.622-0.024,1.266-0.043,1.929
	c-0.012,0.562-0.018,1.178-0.024,1.849c0,0.671,0.007,1.328,0.024,1.962l0.409,15.956L153.166,84.873z"/>
</svg>
